<svg id="visual" viewBox="0 0 900 2000" width="900" height="2000" xmlns="http://www.w3.org/2000/svg" xmlns:xlink="http://www.w3.org/1999/xlink" version="1.1"><g transform="translate(469.8905216141512 986.4351559491727)"><path d="M488.3 -479.9C783.7 -334 1278.2 -323.3 1386.2 -175.7C1494.1 -28 1215.6 256.5 1018.8 579.5C821.9 902.6 706.8 1264.1 522 1252.7C337.1 1241.3 82.5 857 -149.9 663.3C-382.3 469.6 -592.5 466.6 -844.1 338.4C-1095.6 210.2 -1388.3 -43.1 -1441.1 -342.8C-1494 -642.4 -1306.8 -988.4 -1026.7 -1137C-746.5 -1285.6 -373.2 -1236.8 -138.4 -1071.9C96.4 -906.9 192.8 -625.8 488.3 -479.9" fill="#f1b1d2"></path></g></svg>