<svg id="visual" viewBox="0 0 900 600" width="900" height="600" xmlns="http://www.w3.org/2000/svg" xmlns:xlink="http://www.w3.org/1999/xlink" version="1.1"><rect x="0" y="0" width="900" height="600" fill="#fff"></rect><path d="M0 506L21.5 511.2C43 516.3 86 526.7 128.8 527C171.7 527.3 214.3 517.7 257.2 512.8C300 508 343 508 385.8 508C428.7 508 471.3 508 514.2 509C557 510 600 512 642.8 516C685.7 520 728.3 526 771.2 524.5C814 523 857 514 878.5 509.5L900 505L900 601L878.5 601C857 601 814 601 771.2 601C728.3 601 685.7 601 642.8 601C600 601 557 601 514.2 601C471.3 601 428.7 601 385.8 601C343 601 300 601 257.2 601C214.3 601 171.7 601 128.8 601C86 601 43 601 21.5 601L0 601Z" fill="#ffffff"></path><path d="M0 529L21.5 530C43 531 86 533 128.8 531.8C171.7 530.7 214.3 526.3 257.2 524.8C300 523.3 343 524.7 385.8 526.2C428.7 527.7 471.3 529.3 514.2 532.5C557 535.7 600 540.3 642.8 538.2C685.7 536 728.3 527 771.2 523.8C814 520.7 857 523.3 878.5 524.7L900 526L900 601L878.5 601C857 601 814 601 771.2 601C728.3 601 685.7 601 642.8 601C600 601 557 601 514.2 601C471.3 601 428.7 601 385.8 601C343 601 300 601 257.2 601C214.3 601 171.7 601 128.8 601C86 601 43 601 21.5 601L0 601Z" fill="#d4dcd5"></path><path d="M0 556L21.5 554.3C43 552.7 86 549.3 128.8 550C171.7 550.7 214.3 555.3 257.2 553.3C300 551.3 343 542.7 385.8 542.5C428.7 542.3 471.3 550.7 514.2 555C557 559.3 600 559.7 642.8 558.8C685.7 558 728.3 556 771.2 555C814 554 857 554 878.5 554L900 554L900 601L878.5 601C857 601 814 601 771.2 601C728.3 601 685.7 601 642.8 601C600 601 557 601 514.2 601C471.3 601 428.7 601 385.8 601C343 601 300 601 257.2 601C214.3 601 171.7 601 128.8 601C86 601 43 601 21.5 601L0 601Z" fill="#abb9ad"></path><path d="M0 558L21.5 558.5C43 559 86 560 128.8 559.7C171.7 559.3 214.3 557.7 257.2 558C300 558.3 343 560.7 385.8 564C428.7 567.3 471.3 571.7 514.2 571C557 570.3 600 564.7 642.8 564.5C685.7 564.3 728.3 569.7 771.2 569.7C814 569.7 857 564.3 878.5 561.7L900 559L900 601L878.5 601C857 601 814 601 771.2 601C728.3 601 685.7 601 642.8 601C600 601 557 601 514.2 601C471.3 601 428.7 601 385.8 601C343 601 300 601 257.2 601C214.3 601 171.7 601 128.8 601C86 601 43 601 21.5 601L0 601Z" fill="#839886"></path><path d="M0 584L21.5 584.7C43 585.3 86 586.7 128.8 584.5C171.7 582.3 214.3 576.7 257.2 573.7C300 570.7 343 570.3 385.8 571.7C428.7 573 471.3 576 514.2 578.8C557 581.7 600 584.3 642.8 584C685.7 583.7 728.3 580.3 771.2 578C814 575.7 857 574.3 878.5 573.7L900 573L900 601L878.5 601C857 601 814 601 771.2 601C728.3 601 685.7 601 642.8 601C600 601 557 601 514.2 601C471.3 601 428.7 601 385.8 601C343 601 300 601 257.2 601C214.3 601 171.7 601 128.8 601C86 601 43 601 21.5 601L0 601Z" fill="#5d7861"></path></svg>