<svg id="visual" viewBox="0 0 300 150" width="300" height="150" xmlns="http://www.w3.org/2000/svg" xmlns:xlink="http://www.w3.org/1999/xlink" version="1.1"><rect x="0" y="0" width="300" height="150" fill="#f8f9fa"></rect><path d="M0 111L12.5 109.7C25 108.3 50 105.7 75 104.3C100 103 125 103 150 97C175 91 200 79 225 76.8C250 74.7 275 82.3 287.5 86.2L300 90L300 151L287.5 151C275 151 250 151 225 151C200 151 175 151 150 151C125 151 100 151 75 151C50 151 25 151 12.5 151L0 151Z" fill="#767676"></path><path d="M0 96L12.5 97.7C25 99.3 50 102.7 75 109.5C100 116.3 125 126.7 150 123.8C175 121 200 105 225 99.5C250 94 275 99 287.5 101.5L300 104L300 151L287.5 151C275 151 250 151 225 151C200 151 175 151 150 151C125 151 100 151 75 151C50 151 25 151 12.5 151L0 151Z" fill="#525252"></path><path d="M0 132L12.5 128.3C25 124.7 50 117.3 75 119.3C100 121.3 125 132.7 150 135.8C175 139 200 134 225 130.5C250 127 275 125 287.5 124L300 123L300 151L287.5 151C275 151 250 151 225 151C200 151 175 151 150 151C125 151 100 151 75 151C50 151 25 151 12.5 151L0 151Z" fill="#3c3c3c"></path></svg>