<svg id="visual" viewBox="0 0 300 100" width="300" height="100" xmlns="http://www.w3.org/2000/svg" xmlns:xlink="http://www.w3.org/1999/xlink" version="1.1"><rect x="0" y="0" width="300" height="100" fill="#f8f9fa"></rect><path d="M0 61L12.5 59.7C25 58.3 50 55.7 75 54.3C100 53 125 53 150 47C175 41 200 29 225 26.8C250 24.7 275 32.3 287.5 36.2L300 40L300 101L287.5 101C275 101 250 101 225 101C200 101 175 101 150 101C125 101 100 101 75 101C50 101 25 101 12.5 101L0 101Z" fill="#767676"></path><path d="M0 46L12.5 47.7C25 49.3 50 52.7 75 59.5C100 66.3 125 76.7 150 73.8C175 71 200 55 225 49.5C250 44 275 49 287.5 51.5L300 54L300 101L287.5 101C275 101 250 101 225 101C200 101 175 101 150 101C125 101 100 101 75 101C50 101 25 101 12.5 101L0 101Z" fill="#525252"></path><path d="M0 82L12.5 78.3C25 74.7 50 67.3 75 69.3C100 71.3 125 82.7 150 85.8C175 89 200 84 225 80.5C250 77 275 75 287.5 74L300 73L300 101L287.5 101C275 101 250 101 225 101C200 101 175 101 150 101C125 101 100 101 75 101C50 101 25 101 12.5 101L0 101Z" fill="#3c3c3c"></path></svg>