<svg id="visual" viewBox="0 0 900 600" width="900" height="600" xmlns="http://www.w3.org/2000/svg" xmlns:xlink="http://www.w3.org/1999/xlink" fill="#fff"
version="1.1"><path d="M0 421L30 425.2C60 429.3 120 437.7 180 455.8C240 474 300 502 360 500.3C420 498.7 480 467.3 540 466.2C600 465 660 494 720 496.2C780 498.3 840 473.7 870 461.3L900 449L900 601L870 601C840 601 780 601 720 601C660 601 600 601 540 601C480 601 420 601 360 601C300 601 240 601 180 601C120 601 60 601 30 601L0 601Z" fill="#7aa062" stroke-linecap="round" stroke-linejoin="miter"></path></svg>