<svg id="visual" viewBox="0 0 300 200" width="300" height="200" xmlns="http://www.w3.org/2000/svg" xmlns:xlink="http://www.w3.org/1999/xlink" version="1.1"><rect x="0" y="0" width="300" height="200" fill="#002233"></rect><path d="M0 167L7.2 160.5C14.3 154 28.7 141 43 138.2C57.3 135.3 71.7 142.7 86 150.2C100.3 157.7 114.7 165.3 128.8 163.8C143 162.3 157 151.7 171.2 144.5C185.3 137.3 199.7 133.7 214 133C228.3 132.3 242.7 134.7 257 138.2C271.3 141.7 285.7 146.3 292.8 148.7L300 151L300 201L292.8 201C285.7 201 271.3 201 257 201C242.7 201 228.3 201 214 201C199.7 201 185.3 201 171.2 201C157 201 143 201 128.8 201C114.7 201 100.3 201 86 201C71.7 201 57.3 201 43 201C28.7 201 14.3 201 7.2 201L0 201Z" fill="#0066FF" stroke-linecap="round" stroke-linejoin="miter"></path></svg>